<svg width="322" height="78" viewBox="0 0 322 78" fill="none" xmlns="http://www.w3.org/2000/svg">
<path d="M108.969 47.8125C108.448 52.6042 106.729 56.2708 103.812 58.8125C100.917 61.3542 97.0521 62.625 92.2188 62.625C88.8438 62.625 85.8542 61.7812 83.25 60.0938C80.6667 58.4062 78.6667 56.0208 77.25 52.9375C75.8333 49.8333 75.1146 46.2917 75.0938 42.3125V36.4062C75.0938 32.3646 75.8021 28.7812 77.2188 25.6562C78.6354 22.5312 80.6667 20.125 83.3125 18.4375C85.9792 16.7292 89.0417 15.875 92.5 15.875C97.375 15.875 101.219 17.1979 104.031 19.8438C106.865 22.4688 108.51 26.1042 108.969 30.75H105.094C104.135 23.0208 99.9375 19.1562 92.5 19.1562C88.375 19.1562 85.0833 20.6979 82.625 23.7812C80.1875 26.8646 78.9688 31.125 78.9688 36.5625V42.125C78.9688 47.375 80.1562 51.5625 82.5312 54.6875C84.9271 57.8125 88.1562 59.375 92.2188 59.375C96.2396 59.375 99.2708 58.4167 101.312 56.5C103.354 54.5625 104.615 51.6667 105.094 47.8125H108.969ZM136.221 62C135.846 60.9375 135.607 59.3646 135.502 57.2812C134.19 58.9896 132.513 60.3125 130.471 61.25C128.45 62.1667 126.305 62.625 124.034 62.625C120.784 62.625 118.148 61.7188 116.127 59.9062C114.127 58.0938 113.127 55.8021 113.127 53.0312C113.127 49.7396 114.492 47.1354 117.221 45.2188C119.971 43.3021 123.794 42.3438 128.69 42.3438H135.471V38.5C135.471 36.0833 134.721 34.1875 133.221 32.8125C131.742 31.4167 129.575 30.7188 126.721 30.7188C124.117 30.7188 121.961 31.3854 120.252 32.7188C118.544 34.0521 117.69 35.6562 117.69 37.5312L113.94 37.5C113.94 34.8125 115.19 32.4896 117.69 30.5312C120.19 28.5521 123.263 27.5625 126.909 27.5625C130.68 27.5625 133.648 28.5104 135.815 30.4062C138.002 32.2812 139.127 34.9062 139.19 38.2812V54.2812C139.19 57.5521 139.534 60 140.221 61.625V62H136.221ZM124.471 59.3125C126.971 59.3125 129.2 58.7083 131.159 57.5C133.138 56.2917 134.575 54.6771 135.471 52.6562V45.2188H128.784C125.055 45.2604 122.138 45.9479 120.034 47.2812C117.93 48.5938 116.877 50.4062 116.877 52.7188C116.877 54.6146 117.575 56.1875 118.971 57.4375C120.388 58.6875 122.221 59.3125 124.471 59.3125ZM162.255 31.375C161.463 31.2292 160.62 31.1562 159.724 31.1562C157.39 31.1562 155.411 31.8125 153.786 33.125C152.182 34.4167 151.036 36.3021 150.349 38.7812V62H146.63V28.1875H150.286L150.349 33.5625C152.328 29.5625 155.505 27.5625 159.88 27.5625C160.922 27.5625 161.745 27.6979 162.349 27.9688L162.255 31.375ZM178.101 62.625C175.226 62.625 172.622 61.9167 170.289 60.5C167.976 59.0833 166.174 57.1146 164.882 54.5938C163.591 52.0521 162.945 49.2083 162.945 46.0625V44.7188C162.945 41.4688 163.57 38.5417 164.82 35.9375C166.091 33.3333 167.851 31.2917 170.101 29.8125C172.351 28.3125 174.789 27.5625 177.414 27.5625C181.518 27.5625 184.768 28.9688 187.164 31.7812C189.58 34.5729 190.789 38.3958 190.789 43.25V45.3438H166.664V46.0625C166.664 49.8958 167.757 53.0938 169.945 55.6562C172.153 58.1979 174.924 59.4688 178.257 59.4688C180.257 59.4688 182.018 59.1042 183.539 58.375C185.08 57.6458 186.476 56.4792 187.726 54.875L190.07 56.6562C187.32 60.6354 183.33 62.625 178.101 62.625ZM177.414 30.75C174.601 30.75 172.226 31.7812 170.289 33.8438C168.372 35.9062 167.205 38.6771 166.789 42.1562H187.07V41.75C186.966 38.5 186.039 35.8542 184.289 33.8125C182.539 31.7708 180.247 30.75 177.414 30.75ZM222.729 45.4375C222.729 50.7083 221.562 54.8958 219.229 58C216.895 61.0833 213.76 62.625 209.823 62.625C205.114 62.625 201.552 60.875 199.135 57.375L198.979 62H195.479V14H199.198V33.0938C201.573 29.4062 205.093 27.5625 209.76 27.5625C213.76 27.5625 216.916 29.0938 219.229 32.1562C221.562 35.1979 222.729 39.4375 222.729 44.875V45.4375ZM218.979 44.7812C218.979 40.3229 218.114 36.8854 216.385 34.4688C214.656 32.0312 212.218 30.8125 209.073 30.8125C206.677 30.8125 204.645 31.4062 202.979 32.5938C201.312 33.7604 200.052 35.4792 199.198 37.75V53C201.073 57.25 204.385 59.375 209.135 59.375C212.218 59.375 214.625 58.1562 216.354 55.7188C218.104 53.2812 218.979 49.6354 218.979 44.7812ZM226.387 44.5938C226.387 41.3438 227.012 38.4167 228.262 35.8125C229.533 33.2083 231.315 31.1875 233.606 29.75C235.919 28.2917 238.533 27.5625 241.45 27.5625C245.95 27.5625 249.596 29.1458 252.387 32.3125C255.179 35.4583 256.575 39.6354 256.575 44.8438V45.625C256.575 48.8958 255.94 51.8438 254.669 54.4688C253.419 57.0729 251.648 59.0833 249.356 60.5C247.065 61.9167 244.45 62.625 241.512 62.625C237.033 62.625 233.387 61.0521 230.575 57.9062C227.783 54.7396 226.387 50.5521 226.387 45.3438V44.5938ZM230.137 45.625C230.137 49.6667 231.179 52.9896 233.262 55.5938C235.367 58.1771 238.117 59.4688 241.512 59.4688C244.887 59.4688 247.617 58.1771 249.7 55.5938C251.804 52.9896 252.856 49.5625 252.856 45.3125V44.5938C252.856 42.0104 252.377 39.6458 251.419 37.5C250.46 35.3542 249.117 33.6979 247.387 32.5312C245.658 31.3438 243.679 30.75 241.45 30.75C238.117 30.75 235.398 32.0625 233.294 34.6875C231.19 37.2917 230.137 40.7083 230.137 44.9375V45.625ZM259.702 44.5938C259.702 41.3438 260.327 38.4167 261.577 35.8125C262.848 33.2083 264.63 31.1875 266.921 29.75C269.234 28.2917 271.848 27.5625 274.765 27.5625C279.265 27.5625 282.911 29.1458 285.702 32.3125C288.494 35.4583 289.89 39.6354 289.89 44.8438V45.625C289.89 48.8958 289.255 51.8438 287.984 54.4688C286.734 57.0729 284.963 59.0833 282.671 60.5C280.38 61.9167 277.765 62.625 274.827 62.625C270.348 62.625 266.702 61.0521 263.89 57.9062C261.098 54.7396 259.702 50.5521 259.702 45.3438V44.5938ZM263.452 45.625C263.452 49.6667 264.494 52.9896 266.577 55.5938C268.682 58.1771 271.432 59.4688 274.827 59.4688C278.202 59.4688 280.932 58.1771 283.015 55.5938C285.119 52.9896 286.171 49.5625 286.171 45.3125V44.5938C286.171 42.0104 285.692 39.6458 284.734 37.5C283.775 35.3542 282.432 33.6979 280.702 32.5312C278.973 31.3438 276.994 30.75 274.765 30.75C271.432 30.75 268.713 32.0625 266.609 34.6875C264.505 37.2917 263.452 40.7083 263.452 44.9375V45.625ZM303.111 44.9688L298.83 49.0938V62H295.08V14H298.83V44.7188L302.361 40.9062L315.299 28.1875H320.018L305.674 42.4375L321.268 62H316.799L303.111 44.9688Z" fill="#4F4F4F"/>
<path fill-rule="evenodd" clip-rule="evenodd" d="M8 8H44C48.4183 8 52 11.5817 52 16V48.1405C49.6466 46.7792 46.9143 46 44 46H8V8ZM51.9381 63L15 63C14.4477 63 14 62.5523 14 62C14 61.4477 14.4477 61 15 61L51.9381 61C51.851 60.3014 51.6738 59.6307 51.4185 59L14 59C13.4477 59 13 58.5523 13 58C13 57.4477 13.4477 57 14 57L50.2454 57C48.7792 55.1711 46.5264 54 44 54H8V54.0625C9.86709 56.1779 11 58.9567 11 62C11 65.0433 9.86709 67.8221 8 69.9375V70H44C46.5264 70 48.7793 68.8289 50.2454 67L14 67C13.4477 67 13 66.5523 13 66C13 65.4477 13.4477 65 14 65L51.4185 65C51.6738 64.3693 51.851 63.6986 51.9381 63ZM60 62V16C60 7.16344 52.8366 0 44 0H2C0.895432 0 0 0.895431 0 2V48V76C0 77.1046 0.895432 78 2 78H44C52.8366 78 60 70.8366 60 62ZM24.8182 21.9601C21.8892 24.8891 21.8892 29.6378 24.8182 32.5667C27.7471 35.4957 32.4958 35.4957 35.4248 32.5667L41.0816 38.2236C35.0285 44.2767 25.2145 44.2767 19.1613 38.2236C13.1082 32.1705 13.1082 22.3564 19.1613 16.3033C25.2145 10.2501 35.0285 10.2501 41.0816 16.3033L35.4248 21.9601C32.4958 19.0312 27.7471 19.0312 24.8182 21.9601Z" fill="#3F3D56"/>
</svg>
