<svg width="332" height="92" viewBox="0 0 332 92" fill="none" xmlns="http://www.w3.org/2000/svg">
<path d="M111.25 60.5938C111.104 63.7604 110.25 66.5625 108.688 69C107.125 71.4167 104.927 73.2917 102.094 74.625C99.2812 75.9583 96.0625 76.625 92.4375 76.625C86.4583 76.625 81.75 74.6771 78.3125 70.7812C74.875 66.8854 73.1562 61.3854 73.1562 54.2812V52.0312C73.1562 47.5729 73.9271 43.6771 75.4688 40.3438C77.0312 36.9896 79.2708 34.4062 82.1875 32.5938C85.1042 30.7604 88.4792 29.8438 92.3125 29.8438C97.8333 29.8438 102.271 31.3021 105.625 34.2188C108.979 37.1146 110.885 41.1146 111.344 46.2188H100.406C100.323 43.4479 99.625 41.4583 98.3125 40.25C97 39.0417 95 38.4375 92.3125 38.4375C89.5833 38.4375 87.5833 39.4583 86.3125 41.5C85.0417 43.5417 84.375 46.8021 84.3125 51.2812V54.5C84.3125 59.3542 84.9167 62.8229 86.125 64.9062C87.3542 66.9896 89.4583 68.0312 92.4375 68.0312C94.9583 68.0312 96.8854 67.4375 98.2188 66.25C99.5521 65.0625 100.26 63.1771 100.344 60.5938H111.25ZM132.44 76C132.065 75.3125 131.732 74.3021 131.44 72.9688C129.502 75.4062 126.794 76.625 123.315 76.625C120.127 76.625 117.419 75.6667 115.19 73.75C112.961 71.8125 111.846 69.3854 111.846 66.4688C111.846 62.8021 113.2 60.0312 115.909 58.1562C118.617 56.2812 122.555 55.3438 127.721 55.3438H130.971V53.5625C130.971 50.4583 129.627 48.9062 126.94 48.9062C124.44 48.9062 123.19 50.1354 123.19 52.5938H112.659C112.659 49.3229 114.044 46.6667 116.815 44.625C119.607 42.5833 123.159 41.5625 127.471 41.5625C131.784 41.5625 135.19 42.6146 137.69 44.7188C140.19 46.8229 141.471 49.7083 141.534 53.375V68.3438C141.575 71.4479 142.055 73.8229 142.971 75.4688V76H132.44ZM125.846 69.125C127.159 69.125 128.242 68.8438 129.096 68.2812C129.971 67.7188 130.596 67.0833 130.971 66.375V60.9688H127.909C124.242 60.9688 122.409 62.6146 122.409 65.9062C122.409 66.8646 122.732 67.6458 123.377 68.25C124.023 68.8333 124.846 69.125 125.846 69.125ZM165.286 51.7188L161.817 51.4688C158.505 51.4688 156.38 52.5104 155.442 54.5938V76H144.911V42.1875H154.786L155.13 46.5312C156.901 43.2188 159.37 41.5625 162.536 41.5625C163.661 41.5625 164.64 41.6875 165.474 41.9375L165.286 51.7188ZM182.257 76.625C177.07 76.625 172.872 75.0833 169.664 72C166.455 68.8958 164.851 64.8646 164.851 59.9062V59.0312C164.851 55.5729 165.487 52.5208 166.757 49.875C168.049 47.2292 169.924 45.1875 172.382 43.75C174.841 42.2917 177.757 41.5625 181.132 41.5625C185.882 41.5625 189.632 43.0417 192.382 46C195.132 48.9375 196.507 53.0417 196.507 58.3125V62.4062H175.57C175.945 64.3021 176.768 65.7917 178.039 66.875C179.31 67.9583 180.955 68.5 182.976 68.5C186.31 68.5 188.914 67.3333 190.789 65L195.601 70.6875C194.289 72.5 192.424 73.9479 190.007 75.0312C187.612 76.0938 185.028 76.625 182.257 76.625ZM181.07 49.6875C177.987 49.6875 176.153 51.7292 175.57 55.8125H186.195V55C186.237 53.3125 185.81 52.0104 184.914 51.0938C184.018 50.1562 182.737 49.6875 181.07 49.6875ZM229.604 59.375C229.604 64.9167 228.458 69.1771 226.166 72.1562C223.875 75.1354 220.645 76.625 216.479 76.625C213.041 76.625 210.27 75.2604 208.166 72.5312L207.729 76H198.291V28H208.823V44.9062C210.781 42.6771 213.312 41.5625 216.416 41.5625C220.625 41.5625 223.875 43.0729 226.166 46.0938C228.458 49.1146 229.604 53.3646 229.604 58.8438V59.375ZM219.041 58.7188C219.041 55.4688 218.604 53.1562 217.729 51.7812C216.875 50.3854 215.552 49.6875 213.76 49.6875C211.385 49.6875 209.739 50.5938 208.823 52.4062V65.8438C209.718 67.6354 211.385 68.5312 213.823 68.5312C216.302 68.5312 217.875 67.3229 218.541 64.9062C218.875 63.7188 219.041 61.6562 219.041 58.7188ZM230.387 58.7812C230.387 55.4062 231.044 52.4062 232.356 49.7812C233.669 47.1354 235.554 45.1042 238.012 43.6875C240.471 42.2708 243.356 41.5625 246.669 41.5625C251.731 41.5625 255.721 43.1354 258.637 46.2812C261.554 49.4062 263.012 53.6667 263.012 59.0625V59.4375C263.012 64.7083 261.544 68.8958 258.606 72C255.69 75.0833 251.731 76.625 246.731 76.625C241.919 76.625 238.054 75.1875 235.137 72.3125C232.221 69.4167 230.648 65.5 230.419 60.5625L230.387 58.7812ZM240.919 59.4375C240.919 62.5625 241.408 64.8542 242.387 66.3125C243.367 67.7708 244.815 68.5 246.731 68.5C250.481 68.5 252.398 65.6146 252.481 59.8438V58.7812C252.481 52.7188 250.544 49.6875 246.669 49.6875C243.148 49.6875 241.242 52.3021 240.95 57.5312L240.919 59.4375ZM263.765 58.7812C263.765 55.4062 264.421 52.4062 265.734 49.7812C267.046 47.1354 268.932 45.1042 271.39 43.6875C273.848 42.2708 276.734 41.5625 280.046 41.5625C285.109 41.5625 289.098 43.1354 292.015 46.2812C294.932 49.4062 296.39 53.6667 296.39 59.0625V59.4375C296.39 64.7083 294.921 68.8958 291.984 72C289.067 75.0833 285.109 76.625 280.109 76.625C275.296 76.625 271.432 75.1875 268.515 72.3125C265.598 69.4167 264.025 65.5 263.796 60.5625L263.765 58.7812ZM274.296 59.4375C274.296 62.5625 274.786 64.8542 275.765 66.3125C276.744 67.7708 278.192 68.5 280.109 68.5C283.859 68.5 285.775 65.6146 285.859 59.8438V58.7812C285.859 52.7188 283.921 49.6875 280.046 49.6875C276.525 49.6875 274.619 52.3021 274.327 57.5312L274.296 59.4375ZM312.049 63.4062L309.08 66.375V76H298.549V27.9688H309.08V53.4688L310.143 52.0625L318.08 42.1875H330.705L318.861 56.0938L331.486 76H319.424L312.049 63.4062Z" fill="#FAF7E8"/>
<path fill-rule="evenodd" clip-rule="evenodd" d="M8 8H44C48.4183 8 52 11.5817 52 16V48.1405C49.6466 46.7792 46.9143 46 44 46H8V8ZM51.9381 63L15 63C14.4477 63 14 62.5523 14 62C14 61.4477 14.4477 61 15 61L51.9381 61C51.851 60.3014 51.6738 59.6307 51.4185 59L14 59C13.4477 59 13 58.5523 13 58C13 57.4477 13.4477 57 14 57L50.2454 57C48.7792 55.1711 46.5264 54 44 54H8V54.0625C9.86709 56.1779 11 58.9567 11 62C11 65.0433 9.86709 67.8221 8 69.9375V70H44C46.5264 70 48.7793 68.8289 50.2454 67L14 67C13.4477 67 13 66.5523 13 66C13 65.4477 13.4477 65 14 65L51.4185 65C51.6738 64.3693 51.851 63.6986 51.9381 63ZM60 62V16C60 7.16344 52.8366 0 44 0H2C0.895432 0 0 0.895431 0 2V48V76C0 77.1046 0.895432 78 2 78H44C52.8366 78 60 70.8366 60 62ZM24.8182 21.9601C21.8892 24.8891 21.8892 29.6378 24.8182 32.5667C27.7471 35.4957 32.4958 35.4957 35.4248 32.5667L41.0816 38.2236C35.0285 44.2767 25.2145 44.2767 19.1613 38.2236C13.1082 32.1705 13.1082 22.3564 19.1613 16.3033C25.2145 10.2501 35.0285 10.2501 41.0816 16.3033L35.4248 21.9601C32.4958 19.0312 27.7471 19.0312 24.8182 21.9601Z" fill="#3F3D56"/>
</svg>
